<?xml version="1.0" encoding="utf-8"?>
<!-- Generator: Adobe Illustrator 25.0.0, SVG Export Plug-In . SVG Version: 6.00 Build 0)  -->
<svg version="1.1" id="Calque_1" xmlns="http://www.w3.org/2000/svg" xmlns:xlink="http://www.w3.org/1999/xlink" x="0px" y="0px"
	 viewBox="0 0 1920 650.09" style="enable-background:new 0 0 1920 650.09;" xml:space="preserve">
<style type="text/css">
	.st0{fill:#FFFFFF;}
	.st1{fill:#5800FF;}
	.st2{fill:#12152B;}
</style>
<g>
	<path class="st0" d="M276.93,441.82l0.16,1.45c0.7,6.18,1.36,12,2.04,18.03l0.18,1.56h411.22c0.34-3.18,0.65-6.04,0.96-8.99
		l0.19-1.79l10.72-1.17V39.25h-22.53l-1.6-9.66H290.93c-0.41,2.75-0.77,5.14-1.12,7.57l-0.25,1.73l-10.96,1.07
		c-0.22,1.57-0.42,3.06-0.62,4.5l-0.84,6l-8.73,1.45v387.24c2.54,0.79,4.72,1.47,7.13,2.22L276.93,441.82z M322.96,84.3l9.64-1.23
		l1.23-11.27h336.7l1.01,11.16l11.41,1.33v323.79l-11.22,1.22l-1.42,9.64H333.51v-2.13l-0.79-7.39c-2.5-0.35-4.97-0.69-7.84-1.1
		l-1.92-0.27V84.3z"/>
	<path class="st0" d="M362.58,119.41v45.52l11.96,1.48v35.21c3.66,0.42,6.69,0.77,10.45,1.21l1.98,0.23v45.23l11.92,2.01v35.06
		c1.31,0.27,2.55,0.51,3.8,0.76l6.64,1.34v44.86c3.52,0.39,6.57,0.73,10.47,1.16l1.99,0.22v45.87l12.14,1.14v22.8h18.9v-18.46
		c-3.09-0.35-6.09-0.68-9.9-1.09l-2-0.22v-45.89c-3.48-0.33-6.36-0.59-10.07-0.93l-2.03-0.19v-35.29c-3.66-0.42-6.57-0.75-9.46-1.09
		l-1.98-0.23v-38.94h23.37l1.27-11.44l1.89-0.11c6.67-0.38,13.03-0.74,19.38-1.1l1.53-10.97h39.69l0.22,2
		c0.33,3.03,0.62,5.73,0.92,8.42l0.09,0.82l10.99,1.18l0.19,1.8c0.24,2.28,0.47,4.4,0.7,6.52l0.26,2.4h41.71l1.4-11.76h22.91
		l1.16-11.13l9.55-1.26l1.23-10.9l10.95-1.23c0.23-1.9,0.44-3.7,0.65-5.54l0.47-3.98l1.79-0.18c3.21-0.32,6.15-0.61,9.24-0.91
		c0.22-1.96,0.42-3.84,0.62-5.65l0.59-5.34l10.84-1.29l2.22-21.23l1.51-0.39c2.69-0.69,4.87-1.25,7.21-1.85l1.86-0.48v-21.69
		l9.87-1.41v-18.65h-4.85l-0.28,2.63c-0.24,2.21-0.49,4.52-0.77,7.23l-0.21,2h-47.49c-0.32,3.45-0.58,6.22-0.86,9.35l-0.19,2.04
		h-62.62l-0.22-2c-0.36-3.31-0.69-6.25-1.02-9.25l-11.02-1.13l-0.19-1.81c-0.33-3.23-0.62-6.16-0.92-9.22
		c-2.63-0.33-5.21-0.65-8.6-1.07l-1.96-0.24v-23.84h-23.3l-0.24-1.97c-0.28-2.31-0.5-4.24-0.73-6.13l-0.18-1.53H446.3l-1.34,10.13
		H422l-1.31,11.76h-49.86l-0.3-1.89c-3.28-20.53-5.4-30.07-9.29-32.29c-2.09-1.19-5.47-0.4-10.18,1.38v28.09
		c1.45,0.16,2.93,0.33,4.51,0.51L362.58,119.41z M394.67,166.2h13.92l1.13,11.05c1.79,0.2,3.56,0.39,5.4,0.59l5.84,0.64v50.77
		h-16.03v-21.85l-10.27-1.56V166.2z"/>
	<path class="st1" d="M272.81,445.22c0.64,5.65,1.25,11.02,1.87,16.58l0.62,5.53h419.24l0.22-2c0.36-3.33,0.68-6.27,0.99-9.21
		l11.12-1.22V34.77h-23.2l-1.6-9.66H287.08l-0.29,1.91c-0.44,2.89-0.8,5.36-1.15,7.76l-10.98,1.07l-0.25,1.74
		c-0.31,2.23-0.6,4.29-0.87,6.25l-0.38,2.74l-9.23,1.53v394.34l1.58,0.49C268.22,443.78,270.46,444.48,272.81,445.22z M268.41,51.91
		l8.73-1.45l0.84-6c0.2-1.44,0.4-2.93,0.62-4.5l10.96-1.07l0.25-1.73c0.35-2.42,0.71-4.81,1.12-7.57h387.33l1.6,9.66h22.53v411.64
		l-10.72,1.17l-0.19,1.79c-0.31,2.95-0.62,5.82-0.96,8.99H279.31l-0.18-1.56c-0.68-6.03-1.34-11.85-2.04-18.03l-0.16-1.45
		l-1.39-0.44c-2.4-0.76-4.59-1.44-7.13-2.22V51.91z"/>
	<path class="st2" d="M336.8,405.47l0.96,9h328.68l1.36-9.24l10.67-1.16V88.28l-11.06-1.3l-0.97-10.7H337.85l-1.18,10.79l-9.24,1.18
		v315.92c2.7,0.38,5.1,0.72,7.63,1.07L336.8,405.47z M346.58,86.96L348,86.4c6.86-2.71,11.59-3.86,15.46-1.65
		c5.64,3.21,7.84,12.78,11.2,33.58h42.03l1.31-11.76h23.04l1.34-10.13h49.63l0.65,5.49c0.16,1.33,0.31,2.67,0.49,4.14h23.81v24.36
		c3.16,0.39,5.66,0.71,8.42,1.06l1.77,0.23l0.18,1.78c0.31,3.12,0.59,6.03,0.91,9.16l10.98,1.12l0.2,1.8c0.34,3.03,0.65,5.9,1,9.06
		h54.52c0.27-2.93,0.53-5.74,0.87-9.36l0.19-2.03h47.54c0.2-1.89,0.38-3.59,0.56-5.24l0.71-6.62h13.35v27.02l-9.87,1.41v21.27
		l-5.22,1.34c-1.89,0.49-3.67,0.95-5.71,1.47l-2.27,21.69l-10.86,1.29l-0.2,1.8c-0.26,2.36-0.53,4.83-0.83,7.47l-0.2,1.8l-1.81,0.18
		c-3.17,0.31-6.1,0.59-9.24,0.9l-0.05,0.39c-0.28,2.41-0.56,4.74-0.87,7.32l-0.21,1.76l-10.92,1.23l-1.23,10.83l-9.52,1.25
		l-1.2,11.63h-22.97l-1.4,11.76h-49.71l-0.69-6.39c-0.17-1.55-0.34-3.11-0.51-4.73l-10.98-1.18l-0.48-4.4
		c-0.23-2.09-0.46-4.18-0.7-6.43h-31.77l-1.5,10.76l-1.84,0.1c-6.36,0.36-12.7,0.72-19.32,1.1l-1.3,11.67h-22.9v30.46
		c2.78,0.32,5.72,0.66,9.46,1.08l1.99,0.23v35.2c3.45,0.32,6.33,0.58,10.08,0.94l2.03,0.19v45.95c3.66,0.4,6.63,0.73,9.91,1.1
		l1.99,0.22v26.94h-27.86v-23.2l-12.14-1.14V337.7c-3.67-0.41-6.71-0.75-10.47-1.16l-1.99-0.22v-45.21l-3.04-0.61
		c-1.81-0.36-3.58-0.72-5.61-1.13l-1.79-0.36v-34.94l-11.92-2.01v-45.03c-3.51-0.41-6.56-0.76-10.45-1.2l-1.98-0.23v-35.25
		l-11.96-1.48v-45.47l-3.03-0.34c-2.3-0.26-4.38-0.49-6.5-0.74l-1.98-0.23V86.96z"/>
	<path class="st1" d="M332.72,409.42l0.79,7.39v2.13h336.81l1.42-9.64l11.22-1.22V84.29l-11.41-1.33l-1.01-11.16h-336.7l-1.23,11.27
		l-9.64,1.23v323.75l1.92,0.27C327.75,408.73,330.22,409.08,332.72,409.42z M327.44,88.24l9.24-1.18l1.18-10.79h328.59l0.97,10.7
		l11.06,1.3v315.79l-10.67,1.16l-1.36,9.24H337.77l-0.96-9l-1.73-0.24c-2.53-0.35-4.93-0.69-7.63-1.07V88.24z"/>
	<path class="st1" d="M355.07,123.07l3.03,0.34v45.47l11.96,1.48v35.25l1.98,0.23c3.89,0.45,6.93,0.8,10.45,1.2v45.03l11.92,2.01
		v34.94l1.79,0.36c2.02,0.41,3.8,0.77,5.61,1.13l3.04,0.61v45.21l1.99,0.22c3.76,0.41,6.8,0.75,10.47,1.16v45.94l12.14,1.14v23.2
		h27.86v-26.94l-1.99-0.22c-3.28-0.37-6.25-0.7-9.91-1.1v-45.95l-2.03-0.19c-3.75-0.35-6.63-0.62-10.08-0.94v-35.2l-1.99-0.23
		c-3.74-0.43-6.68-0.76-9.46-1.08v-30.46h22.9l1.3-11.67c6.62-0.38,12.96-0.74,19.32-1.1l1.84-0.1l1.5-10.76h31.77
		c0.25,2.25,0.48,4.34,0.7,6.43l0.48,4.4l10.98,1.18c0.17,1.62,0.34,3.18,0.51,4.73l0.69,6.39h49.71l1.4-11.76h22.97l1.2-11.63
		l9.52-1.25l1.23-10.83l10.92-1.23l0.21-1.76c0.31-2.58,0.59-4.91,0.87-7.32l0.05-0.39c3.13-0.31,6.07-0.6,9.24-0.9l1.81-0.18
		l0.2-1.8c0.3-2.63,0.57-5.1,0.83-7.47l0.2-1.8l10.86-1.29l2.27-21.69c2.04-0.52,3.82-0.98,5.71-1.47l5.22-1.34V159.8l9.87-1.41
		v-27.02H644.8l-0.71,6.62c-0.18,1.65-0.36,3.36-0.56,5.24h-47.54l-0.19,2.03c-0.34,3.62-0.6,6.43-0.87,9.36H540.4
		c-0.35-3.16-0.66-6.03-1-9.06l-0.2-1.8l-10.98-1.12c-0.32-3.13-0.61-6.05-0.91-9.16l-0.18-1.78l-1.77-0.23
		c-2.76-0.35-5.25-0.66-8.42-1.06v-24.36h-23.81c-0.18-1.48-0.33-2.82-0.49-4.14l-0.65-5.49h-49.63l-1.34,10.13H418l-1.31,11.76
		h-42.03c-3.36-20.81-5.56-30.37-11.2-33.58c-3.87-2.2-8.59-1.06-15.46,1.65l-1.42,0.56v35.15l1.98,0.23
		C350.69,122.58,352.76,122.81,355.07,123.07z M351.06,90.02c4.71-1.78,8.09-2.57,10.18-1.38c3.89,2.22,6.01,11.75,9.29,32.29
		l0.3,1.89h49.86l1.31-11.76h22.96l1.34-10.13h41.72l0.18,1.53c0.22,1.9,0.45,3.82,0.73,6.13l0.24,1.97h23.3v23.84l1.96,0.24
		c3.39,0.42,5.96,0.74,8.6,1.07c0.3,3.05,0.59,5.99,0.92,9.22l0.19,1.81l11.02,1.13c0.33,3.01,0.66,5.94,1.02,9.25l0.22,2h62.62
		l0.19-2.04c0.28-3.13,0.54-5.91,0.86-9.35h47.49l0.21-2c0.29-2.71,0.53-5.02,0.77-7.23l0.28-2.63h4.85v18.65l-9.87,1.41v21.69
		l-1.86,0.48c-2.34,0.6-4.52,1.16-7.21,1.85l-1.51,0.39l-2.22,21.23l-10.84,1.29l-0.59,5.34c-0.2,1.81-0.41,3.69-0.62,5.65
		c-3.09,0.3-6.02,0.59-9.24,0.91l-1.79,0.18l-0.47,3.98c-0.22,1.85-0.43,3.64-0.65,5.54l-10.95,1.23l-1.23,10.9l-9.55,1.26
		l-1.16,11.13h-22.91l-1.4,11.76h-41.71l-0.26-2.4c-0.23-2.11-0.46-4.24-0.7-6.52l-0.19-1.8l-10.99-1.18l-0.09-0.82
		c-0.3-2.69-0.59-5.39-0.92-8.42l-0.22-2h-39.69l-1.53,10.97c-6.35,0.36-12.7,0.72-19.38,1.1l-1.89,0.11l-1.27,11.44h-23.37v38.94
		l1.98,0.23c2.9,0.33,5.8,0.67,9.46,1.09v35.29l2.03,0.19c3.72,0.34,6.6,0.61,10.07,0.93v45.89l2,0.22c3.81,0.41,6.81,0.74,9.9,1.09
		v18.46h-18.9v-22.8l-12.14-1.14V333.7l-1.99-0.22c-3.9-0.44-6.95-0.77-10.47-1.16v-44.86l-6.64-1.34c-1.25-0.25-2.49-0.5-3.8-0.76
		v-35.06l-11.92-2.01v-45.23l-1.98-0.23c-3.76-0.44-6.79-0.79-10.45-1.21V166.4l-11.96-1.48v-45.52l-7.01-0.79
		c-1.58-0.18-3.05-0.34-4.51-0.51V90.02z"/>
	<path class="st2" d="M409.41,224.76h7.07v-42.28l-1.85-0.2c-2.46-0.27-4.79-0.52-7.21-0.79l-1.8-0.2l-1.09-10.62h-5.4v31.31
		l10.27,1.56V224.76z"/>
	<path class="st1" d="M404.93,229.24h16.03v-50.77l-5.84-0.64c-1.84-0.2-3.61-0.39-5.4-0.59l-1.13-11.05h-13.92v39.63l10.27,1.56
		V229.24z M399.14,201.99v-31.31h5.4l1.09,10.62l1.8,0.2c2.42,0.27,4.75,0.52,7.21,0.79l1.85,0.2v42.28h-7.07v-21.22L399.14,201.99z
		"/>
	<path class="st0" d="M810.27,560.43c-0.39-3.57-0.72-6.52-1.05-9.56H399.35v6.52l21.1,1.16l1.38,10.96c1.92,0.2,3.76,0.4,5.55,0.59
		l5.71,0.61l1.12,11.53h23.15l0.32,3.36c0.31,3.17,0.56,5.76,0.84,8.82h22.59v22.04h434.41v-17.74h-21.34l-0.22-1.99
		c-0.4-3.6-0.73-6.56-1.05-9.5l-33.39-1.46l-2.95-11.3h-21.69l-0.22-1.99c-0.41-3.62-0.75-6.61-1.15-10.04h-23.02L810.27,560.43z"/>
	<path class="st0" d="M268.34,593.52h5.02l1.09-10.72l11.59-1.27v-22.99l11.62-1.27l1.18-10.96l1.79-0.2
		c3.24-0.35,6.18-0.67,9.64-1.04v-22.57H737.8v-30.93H268.34V593.52z"/>
	<path class="st1" d="M742.27,487.11H263.86V598h13.54l1.13-11.14l11.98-1.31v-22.99l11.21-1.22l1.18-10.96
		c3.15-0.34,6.15-0.66,9.83-1.05l2.01-0.22V527h427.53V487.11z M737.8,522.52H310.27v22.57c-3.46,0.37-6.4,0.68-9.64,1.04l-1.79,0.2
		l-1.18,10.96l-11.62,1.27v22.99l-11.59,1.27l-1.09,10.72h-5.02V491.59H737.8V522.52z"/>
	<path class="st1" d="M813.45,548.39l-0.22-1.99H394.87v15.23l21.6,1.19l1.35,10.77l1.76,0.19c2.57,0.28,4.98,0.53,7.32,0.78
		l2.08,0.22l1.16,11.94h23.15c0.34,3.52,0.61,6.39,0.97,10.14l0.19,2.03h22.19v22.04h443.37v-26.69H898.2
		c-0.38-3.46-0.71-6.37-1.04-9.41l-0.22-1.91l-33.91-1.49l-2.99-11.45h-21.14c-0.39-3.42-0.73-6.41-1.16-10.05l-0.23-1.98h-23
		C814.13,554.51,813.81,551.57,813.45,548.39z M834.67,572.47l0.22,1.99h21.69l2.95,11.3l33.39,1.46c0.32,2.94,0.65,5.9,1.05,9.5
		l0.22,1.99h21.34v17.74H481.12v-22.04h-22.59c-0.29-3.06-0.54-5.65-0.84-8.82l-0.32-3.36h-23.15l-1.12-11.53l-5.71-0.61
		c-1.79-0.19-3.63-0.38-5.55-0.59l-1.38-10.96l-21.1-1.16v-6.52h409.87c0.34,3.03,0.66,5.98,1.05,9.56l0.22,2h23.02
		C833.91,565.86,834.26,568.86,834.67,572.47z"/>
	<rect x="1598.11" y="406.04" class="st2" width="2.71" height="57.55"/>
	<path class="st0" d="M1395.12,76.31l-1.63-9.27h-102.76l-1.14,9.9l-10.19,1.11l-1.19,10.13l-10.06,1.11l-1.06,10.14l-10.17,1.05
		c-0.28,2.7-0.53,5.16-0.78,7.66l-0.24,2.4l-8.83,1.15l-1.04,8.75l-9.75,1.03v201.88h58.78l1.16-10.1l10.51-0.95V126.67h27.42
		v196.57h59.52l1.07-8.79l9.52-1.94V77.69c-1.53-0.23-2.99-0.45-4.44-0.67L1395.12,76.31z"/>
	<polygon class="st0" points="1887.32,125.92 1887.32,67.11 1729.05,67.11 1729.05,323.29 1887.4,323.29 1887.4,263.94 
		1788.84,263.94 1788.84,214.3 1822.49,214.3 1822.49,175.55 1788.85,175.55 1788.85,125.92 	"/>
	<path class="st0" d="M1137.14,208.88h-28.94V77.75l-9.44-1.43l-1.6-9.37h-59.97v196.73h-27.02l0.01-40.91
		c0.02-46.82,0.04-95.23-0.21-142.69c-0.03-3.95-1.62-9.99-2.68-12.06c-15.44-0.79-31.2-0.73-46.46-0.66
		c-3.38,0.01-6.77,0.03-10.15,0.03c-0.17,1.4-0.32,2.75-0.48,4.05l-0.65,5.47l-9.62,1.11v234.59l9.26,1.25l1.4,9.29h102.91
		l1.09-9.81l10.12-1.06c0.28-2.74,0.53-5.18,0.77-7.62l0.24-2.38l2.37-0.33c2.36-0.32,4.42-0.61,6.45-0.89l1.07-10.13l2.44-0.26
		c2.73-0.28,5.21-0.55,7.73-0.82l1.03-8.77l2.44-0.23c2.67-0.26,5.14-0.5,7.71-0.75l1.2-11.17h107.61V67.44h-68.66V208.88z"/>
	<path class="st0" d="M909.95,111.62l-9.97-1.05l-1-10.16l-8.79-1.32l-1.14-9.91l-10.11-1.12l-1.15-10.58h-21.23l-1.14-10.32H752.16
		v256.16h59.98V191.77h97.81V111.62z M849.65,161.68l-7.68,4.66c-0.5,2.09-1.04,4.34-1.65,6.85l-0.56,2.32l-2.39,0h-24.81v-48.86
		h37.09V161.68z"/>
	<path class="st0" d="M1700.65,287.95c0.01-53.43,0.02-108.66-0.35-162.81c-0.7-1.11-3.82-3.21-5.12-3.22
		c-26.31-0.33-53-0.3-78.82-0.28l-23.52,0.01l-0.39-2.58c-0.47-3.15-0.82-5.42-1.12-7.46c-2.7-0.28-5.18-0.53-7.69-0.78l-2.46-0.25
		l-1.06-10.18c-2.69-0.27-5.18-0.53-7.76-0.8l-2.39-0.25l-1.26-10l-10-1.26l-0.25-2.39c-0.28-2.67-0.53-5.05-0.81-7.68l-0.65-0.51
		h-19.12l-1.29-10.47h-103.75v256.1h59.49V126.67h39.84v196.48h59.82V181.37h38.33v141.88h59.44l1.08-9.97l9.8-0.92L1700.65,287.95z
		"/>
	<path class="st2" d="M1901.35,169.94v-21.56h12.62v-92.3v-1.74v-3.28h-207.25v38.46h-94.73h-5.94h-6.07v-6.09v-0.2l-9.75-1.03
		l-1.04-8.75l-8.83-1.15l-0.24-2.4c-0.25-2.5-0.5-4.95-0.78-7.66l-10.17-1.05l-1.06-10.14h-186.54h-3.37h-104.12l-1.06,10.14
		l-10.17,1.05c-0.28,2.7-0.53,5.16-0.78,7.66l-0.24,2.4l-8.83,1.15l-1.04,8.75l-9.75,1.03v0.2v6.09h-6.07h-5.94h-6.09V51.06h-181.27
		h-98.04h-9.45l-1.06,10.14l-10.17,1.05v21.56l-4.04-0.38h-0.17l-1.3-0.14l-0.01,0l-10.34-1.09l-1.04-8.75l-8.83-1.15l-0.24-2.4
		c-0.25-2.5-0.5-4.95-0.78-7.66l-10.17-1.05l-1.06-10.14H735.34h-8.35h-4.6l-0.06-5.49l0,0l-0.05-5.16l-7.43-1.31l-0.22-1.93
		c-0.36-3.1-0.63-5.46-0.93-8.06l-0.84-0.13c-2.22-0.33-4.55-0.68-7.07-1.06l-1.71-0.26l-1.17-11.16h-22.97l-0.22-1.99
		c-0.39-3.51-0.72-6.4-1.07-9.43l-0.03-0.26H171.97l-1.26,11.3h-22.99l-0.17,1.53c-0.32,2.78-0.61,5.33-0.93,8.19l-0.19,1.71
		l-2.24,0.33c-2.19,0.33-4.48,0.67-7.27,1.09l-1.03,21.3l-6.8,0.86c-1.4,0.18-2.82,0.36-4.32,0.55l-0.32,3.1
		c-0.2,1.97-0.42,4.07-0.66,6.46l-0.2,2.01H88.35l-1.31,11.5l-9.47,1.34l-0.28,2.54c-0.23,2.14-0.48,4.37-0.73,6.73l-0.19,1.81
		l-5.59,0.56c-1.8,0.18-3.59,0.36-5.44,0.55l-1.12,10.97l-10.88,1.19v291.46c2.77,0.32,5.63,0.65,8.94,1.02l1.77,0.2l0.2,1.77
		c0.32,2.84,0.66,5.75,1.06,9.19l11.02,1.21l1.13,9.52l9.49,1.08l0.28,2.51c0.31,2.83,0.61,5.56,0.96,8.74h35.23l1.22,11.88
		c11.47,1.26,12.2,8.4,12.03,14.85l0,0v13.76h-4.45H17.93l-2.52,9.9l-1.31,0.32c-3.07,0.74-6.15,1.5-9.54,2.33v148.9l1.29,0.11
		c3.1,0.27,6.12,0.53,9.47,0.83l1.95,0.17l0.53,11.27h6.74h7.07h4.48v4.02h871.45v-4.02h4.48h3.52h12.99v-11.01l11.85-1.38v-42.18
		l-5.08-0.29c-4.98-0.29-9.96-0.57-15.22-0.89l-1.74-0.1l-2.1-11.09h-21.65l-0.22-1.99c-0.42-3.83-0.76-6.85-1.14-10.29H869.8
		v-11.67h-27.12v-10.24H817.4v-5.87v-7.74v-4.19h2.96h7.66h3.06h13.85h328.56l1.19-9.29l2.41-0.24c2.59-0.26,5.07-0.51,7.69-0.78
		c0.26-2.44,0.51-4.87,0.8-7.54l0.32-2.96h14.88v20.06h71.42l1.41-8.6l3.22-0.33c2.29-0.24,4.5-0.46,6.82-0.71l1.12-10.14
		l10.38-1.11v-21.29l2.71-0.31c3.09-0.35,5.67-0.64,8.54-0.96V369.17h152.14v152.61h159.39c0.12-1.02,0.24-2.03,0.37-3.1l0.63-5.36
		l10.26-1.11l1.06-10.55h15.91v19.98h171.43l2.1-6.96l8.68-2.12c0.23-2.39,0.47-4.96,0.73-7.89l0.22-2.38l8.97-1.36l1.09-11.19
		h11.72v-82.79l-6.67-0.05v0.02l-5.96-0.03v-5.93v-3.94h-3.93h-5.94v-5.94v-21.84h65.7l6.99-0.89v-22.49h12.66V241.94h-67.18v-72.01
		H1901.35z M746.1,61.1h114.74l1.14,10.32h21.25l1.2,11.15l10.08,1.11l1.16,10.1l8.88,1.33l0.97,9.94l10.49,1.11v91.68h-97.81
		v131.54l-3.03,0.01H746.1V61.1z M263.93,48.12l9.23-1.53l0.38-2.74c0.27-1.96,0.56-4.02,0.87-6.25l0.25-1.74l10.98-1.07
		c0.35-2.4,0.72-4.86,1.15-7.76l0.29-1.91h394.99l1.6,9.66h23.2v420.14l-11.12,1.22c-0.31,2.94-0.63,5.87-0.99,9.21l-0.22,2H275.3
		l-0.62-5.53c-0.63-5.56-1.23-10.93-1.87-16.58c-2.35-0.74-4.59-1.43-7.3-2.27l-1.58-0.49V48.12z M314.75,549.11l-2.01,0.22
		c-3.68,0.39-6.68,0.71-9.83,1.05l-1.18,10.96l-11.21,1.22v22.99l-11.98,1.31L277.41,598h-13.54V487.11h478.41V527H314.75V549.11z
		 M837.51,557.95l0.23,1.98c0.42,3.64,0.77,6.63,1.16,10.05h21.14l2.99,11.45l33.91,1.49l0.22,1.91c0.33,3.04,0.65,5.95,1.04,9.41
		h21.81v26.69H476.64v-22.04h-22.19l-0.19-2.03c-0.35-3.76-0.63-6.63-0.97-10.14h-23.15l-1.16-11.94l-2.08-0.22
		c-2.34-0.25-4.76-0.5-7.32-0.78l-1.76-0.19l-1.35-10.77l-21.6-1.19V546.4h418.36l0.22,1.99c0.35,3.18,0.68,6.12,1.06,9.56H837.51z
		 M960.05,490.73h-37.67v-62.86h-15.97v62.81h-37.13v-84.55h-5.53v84.75h-36.39V369.16h57.27l1.09,10c2,0.22,4,0.43,6.15,0.66
		l3.71,0.39l0.25,2.37c0.26,2.41,0.5,4.74,0.78,7.3h63.43V490.73z M1098.62,490.73h-37.11v-62.83h-5.54v63h-47.58v-84.76h-5.54
		v84.73h-37.76V369.4h67.11l1.99,9.86l11.09,0.13l-0.02,5.89v4.63h53.35V490.73z M1102.48,285.64l-2.45,0.25
		c-2.67,0.27-5.16,0.52-7.75,0.77l-1.04,8.72l-2.4,0.26c-2.6,0.28-5.08,0.54-7.71,0.82l-1.05,9.95l-2.34,0.33
		c-2.13,0.3-4.18,0.59-6.45,0.9c-0.18,1.8-0.37,3.66-0.58,5.67l-0.46,4.49l-10.17,1.06l-1.16,10.35H945.37l-1.5-9.95l-10.01-1.35
		V72.29h2.87l7.35-0.85l0.08-0.7c0.25-2.11,0.51-4.32,0.8-6.74l0.32-2.67h2.69c4.27,0,8.54-0.02,12.81-0.04
		c15.7-0.07,31.94-0.13,47.91,0.73c6.21,0.35,7.33,17.85,7.33,18.02c0.25,47.48,0.23,95.9,0.21,142.73l-0.01,34.84h14.89V60.89
		h71.15l1.73,10.09l10.27,1.56v130.28h16.81V61.37h80.79v213.62h-108.23L1102.48,285.64z M1193.77,405.55v12.32v61.55l-9.41,1.16
		c-0.3,2.48-0.59,4.92-0.91,7.67l-0.31,2.6h-79V368.51h63.45l5.89-0.14l-0.07,5.89h-0.09v16.06h5.16l5.89-0.16l-0.09,5.89h-0.06
		v3.79l9.55,0.01V405.55z M1290.09,469.07h-2.72l-7.01,1.12c-0.35,2.25-0.7,4.54-1.12,7.16l-0.35,2.23l-4.47,0.47
		c-1.77,0.19-3.58,0.38-5.47,0.58l-1.08,10.27h-68.94v-85.35h-0.08l-0.06-5.71l5.89,0v0h5.18v-3.79h-0.07l-0.1-5.89l5.89,0.08v0.07
		h5.21V369.2h69.14v68.45h-37.72v-31.66h-14.27v57.22h14.1V444h38.06V469.07z M1400.24,319.52l-1.19,9.78h-70.96V132.73h-15.29
		v185.09l-11.11,1.01l-1.21,10.57h-70.26V116l10.36-1.09l1.02-8.63l8.74-1.14c0.25-2.44,0.5-4.93,0.8-7.74l0.26-2.45l10.17-1.05
		l1.06-10.1l10.12-1.12l1.19-10.13l10.18-1.12l1.2-10.46h113.25l1.76,9.99l0.39,0.06c2.24,0.34,4.49,0.68,7.03,1.07l2.57,0.4v241.24
		l0.25,3.69L1400.24,319.52z M1549.55,448.85l-3.24,0l-38.59,0.01v2.91v11.93h41.25v27.2h-3.26h-74.77v-67.03v-1.93h36.55h4.61
		v-16.34h-41.28v-36.33v-0.01h57.4l0.48,4.47c0.19,1.73,0.38,3.57,0.61,5.7h10.72v10.87h9.52L1549.55,448.85z M1639.08,476.81h-2.76
		l-0.29,3.55l-6.87,0.24l-1.18,10.3h-64.25h-3.91v-99.6l9.9-1.16l1.18-9.91l9.83-0.98l1.06-10.17h4.71h52.58V476.81z
		 M1627.28,329.32l-2.96,0.04l-0.06-6.11V187.43h-26.2v141.78h-71.95V132.73h-27.71V329.2h-71.62V60.97h115.18l1.29,10.47h19.79
		l0.29,2.71c0.34,3.16,0.62,5.77,0.91,8.53l9.9,1.26l1.24,9.89c2.51,0.26,5.01,0.52,7.81,0.8l2.46,0.25l1.06,10.17
		c2.41,0.24,4.86,0.5,7.6,0.78l2.35,0.24l0.34,2.33c0.32,2.13,0.63,4.25,1.07,7.19l18.3-0.01c25.84-0.02,52.55-0.05,78.9,0.28
		c3.86,0.05,11.08,4.65,11.1,8.91c0.37,54.28,0.36,109.65,0.36,163.19l0,29.94l-10.37,0.98l-1.14,10.45H1627.28z M1728.57,391.24
		l-0.01,57.6l-41.83,0.01v14.84h4.26h36.99v3.17v24.03h-75.03h-3.01v-68.95h41.16v-15.34v-1h-38.12h-3.15v-36.34h3.15h54.25
		l0.48,4.47c0.19,1.73,0.38,3.57,0.62,5.7h10.72v10.87h6.71h2.8L1728.57,391.24z M1807.88,469.86v10.87h-10.72
		c-0.23,2.13-0.43,3.97-0.62,5.7l-0.48,4.47h-51.28h-6.12v-24.03v-12.31h41.28v-16.34h-34.9h-6.25v-36.99v-31.97h78.04v27.2h-41.25
		v14.84l41.83,0.01l0.01,58.54H1807.88z M1828.55,169.49v50.88h-33.65v37.5h98.55v71.48h-170.48V61.05h170.4v70.93h-98.47v37.5
		H1828.55z"/>
	<rect x="1151.96" y="405.95" class="st2" width="4.22" height="57.48"/>
	<path class="st1" d="M1904.41,176.04v-3.05h3.04v-18.5h12.62V51.06h0.01v-5.49h-219.43v3.3h-0.03v34.56h-94.57v-5.66l-10.36-1.09
		l-1.02-8.63l-8.74-1.14c-0.25-2.44-0.5-4.93-0.8-7.74l-0.26-2.45l-10.17-1.05l-0.72-6.8l-0.35-3.3h-192.06h-3.37h-109.64l-0.35,3.3
		l-0.72,6.8l-10.17,1.05l-0.26,2.45c-0.29,2.81-0.55,5.3-0.8,7.74l-8.74,1.14l-1.02,8.63l-10.36,1.09v5.66h-5.94V51.06v-2.19v-3.3
		h-187.36h-98.04h-14.97l-0.35,3.3l-0.72,6.8l-10.17,1.05v20.47l-4.89-0.52l-1.02-8.63l-8.74-1.14c-0.25-2.44-0.5-4.93-0.8-7.74
		l-0.26-2.45l-10.17-1.05l-0.72-6.8l-0.35-3.3H726.81l-0.08-7.07l-0.02-1.86l-7.8-1.37c-0.35-3.06-0.63-5.47-0.98-8.38l-0.2-1.7
		l-4.23-0.63c-1.71-0.25-3.48-0.52-5.35-0.8l-1.24-11.73h-23c-0.3-2.66-0.57-5.01-0.85-7.45l-0.48-4.23H167.96l-1.26,11.3h-22.98
		l-0.63,5.5c-0.25,2.22-0.49,4.29-0.74,6.49c-2.32,0.35-4.81,0.72-7.93,1.2l-1.81,0.28l-1.03,21.2l-3.07,0.39
		c-1.94,0.24-3.93,0.49-6.1,0.77l-1.76,0.23l-0.68,6.63c-0.15,1.4-0.3,2.87-0.46,4.45H84.35l-1.37,12.02l-9.49,1.34l-0.65,6
		c-0.17,1.59-0.35,3.23-0.54,4.94l-1.97,0.2c-2.39,0.24-4.74,0.47-7.27,0.73l-1.82,0.19l-1.12,11l-11.28,1.23V395.9l1.98,0.23
		c2.91,0.34,5.82,0.67,9.16,1.05c0.32,2.78,0.66,5.71,1.07,9.21l0.21,1.77l11.03,1.21l1.12,9.5l9.47,1.08
		c0.34,3.03,0.67,6.03,1.06,9.69l0.22,2h35.21l1.19,11.63l1.92,0.09c10.12,0.49,9.43,4.91,9.63,12.24c0.05,1.87,0.08,2.71,0.09,3.78
		v3.79H14.45l-2.71,10.66c-2.69,0.65-5.42,1.32-8.4,2.05l-3.26,0.8v156.51l5.38,0.47c2.48,0.22,4.92,0.43,7.51,0.66l0.55,11.64
		h17.21v4.48h882.46v-4.48H933v-11.5l11.85-1.38v-50.39l-9.3-0.54c-4.43-0.26-8.85-0.51-13.47-0.78l-2.15-11.31h-21.34
		c-0.4-3.61-0.73-6.63-1.15-10.3l-0.22-1.99h-22.94V546.1h-27.12v-10.24h-25.29v-7.22h3.1h2.44h351.44l1.25-9.8
		c2.54-0.26,5.04-0.51,7.76-0.79l2.47-0.25l0.26-2.47c0.26-2.52,0.52-4.92,0.79-7.49h3.29v20.06h82.7l1.5-9.11
		c2.58-0.27,5.1-0.53,7.86-0.82l2.44-0.26l1.12-10.14l10.96-1.18v-21.31c2.77-0.31,5.3-0.59,8.3-0.93l2.94-0.33V375.27h139.94
		v152.61h170.93l0.31-2.7c0.23-1.99,0.44-3.79,0.68-5.78l0.06-0.54l10.35-1.12l1-9.98h4.3v19.98h182.06l2.4-7.96l9.51-2.32
		l0.21-2.16c0.23-2.37,0.46-4.87,0.72-7.7l8.95-1.36l1.02-10.4h12.29V400.9l-12.63-0.1v-9.88h-9.86v-15.58h59.79l12.9-1.63v-21.75
		h12.66V235.84h-67.18v-59.81H1904.41z M1913.98,241.94v103.92h-12.66v22.49l-6.99,0.89h-65.7v21.84v5.94h5.94h3.93v3.94v5.93
		l5.96,0.03v-0.02l6.67,0.05v82.79h-11.72l-1.09,11.19l-8.97,1.36l-0.22,2.38c-0.27,2.94-0.51,5.51-0.73,7.89l-8.68,2.12l-2.1,6.96
		h-171.43v-19.98h-15.91l-1.06,10.55l-10.26,1.11l-0.63,5.36c-0.13,1.07-0.25,2.08-0.37,3.1h-159.39V369.17H1306.4v109.19
		c-2.87,0.32-5.45,0.61-8.54,0.96l-2.71,0.31v21.29l-10.38,1.11l-1.12,10.14c-2.32,0.24-4.53,0.47-6.82,0.71l-3.22,0.33l-1.41,8.6
		h-71.42v-20.06h-14.88l-0.32,2.96c-0.29,2.67-0.54,5.09-0.8,7.54c-2.62,0.27-5.1,0.52-7.69,0.78l-2.41,0.24l-1.19,9.29H844.93
		h-13.85h-3.06h-7.66h-2.96v4.19v7.74v5.87h25.29v10.24h27.12v11.67h23.41c0.39,3.44,0.72,6.46,1.14,10.29l0.22,1.99h21.65
		l2.1,11.09l1.74,0.1c5.26,0.31,10.24,0.6,15.22,0.89l5.08,0.29v42.18l-11.85,1.38v11.01h-12.99h-3.52h-4.48v4.02H36.08v-4.02H31.6
		h-7.07H17.8l-0.53-11.27l-1.95-0.17c-3.35-0.3-6.37-0.56-9.47-0.83l-1.29-0.11v-148.9c3.4-0.83,6.48-1.59,9.54-2.33l1.31-0.32
		l2.52-9.9h114.3h4.45v-13.76l0,0c0.17-6.46-0.56-13.6-12.03-14.85l-1.22-11.88H88.2c-0.35-3.19-0.65-5.92-0.96-8.74l-0.28-2.51
		l-9.49-1.08l-1.13-9.52l-11.02-1.21c-0.4-3.44-0.74-6.35-1.06-9.19l-0.2-1.77l-1.77-0.2c-3.31-0.37-6.17-0.7-8.94-1.02V100.45
		l10.88-1.19l1.12-10.97c1.85-0.19,3.64-0.37,5.44-0.55l5.59-0.56l0.19-1.81c0.25-2.36,0.49-4.59,0.73-6.73l0.28-2.54l9.47-1.34
		l1.31-11.5h35.21l0.2-2.01c0.24-2.38,0.46-4.48,0.66-6.46l0.32-3.1c1.5-0.19,2.92-0.37,4.32-0.55l6.8-0.86l1.03-21.3
		c2.79-0.42,5.08-0.76,7.27-1.09l2.24-0.33l0.19-1.71c0.32-2.87,0.61-5.41,0.93-8.19l0.17-1.53h22.99l1.26-11.3H678.6l0.03,0.26
		c0.35,3.03,0.68,5.92,1.07,9.43l0.22,1.99h22.97l1.17,11.16l1.71,0.26c2.52,0.38,4.85,0.73,7.07,1.06l0.84,0.13
		c0.31,2.6,0.58,4.96,0.93,8.06l0.22,1.93l7.43,1.31l0.05,5.16l0,0l0.06,5.49h4.6h8.35h150.81l1.06,10.14l10.17,1.05
		c0.28,2.7,0.53,5.16,0.78,7.66l0.24,2.4l8.83,1.15l1.04,8.75l10.34,1.09l0.01,0l1.3,0.14h0.17l4.04,0.38V62.25l10.17-1.05
		l1.06-10.14h9.45h98.04h181.27v38.46h6.09h5.94h6.07v-6.09v-0.2l9.75-1.03l1.04-8.75l8.83-1.15l0.24-2.4
		c0.25-2.5,0.5-4.95,0.78-7.66l10.17-1.05l1.06-10.14h104.12h3.37h186.54l1.06,10.14l10.17,1.05c0.28,2.7,0.53,5.16,0.78,7.66
		l0.24,2.4l8.83,1.15l1.04,8.75l9.75,1.03v0.2v6.09h6.07h5.94h94.73V51.06h207.25v3.28v1.74v92.3h-12.62v21.56h-54.55v72.01H1913.98
		z"/>
	<path class="st1" d="M818.21,329.38V197.84h97.81v-91.68l-10.49-1.11l-0.97-9.94l-8.88-1.33l-1.16-10.1l-10.08-1.11l-1.2-11.15
		h-21.25l-1.14-10.32H746.1v268.29h69.08L818.21,329.38z M812.14,323.33h-59.98V67.16h103.25l1.14,10.32h21.23l1.15,10.58
		l10.11,1.12l1.14,9.91l8.79,1.32l1,10.16l9.97,1.05v80.16h-97.81V323.33z"/>
	<path class="st1" d="M1893.39,131.98V61.05h-170.4v268.31h170.48v-71.48h-98.55v-37.5h33.65v-50.88h-33.63v-37.5H1893.39z
		 M1822.49,175.55v38.75h-33.65v49.63h98.56v59.35h-158.35V67.11h158.27v58.81h-98.47v49.63H1822.49z"/>
	<path class="st1" d="M1211.86,61.37h-80.79v141.45h-16.81V72.54l-10.27-1.56l-1.73-10.09h-71.15v196.73h-14.89l0.01-34.84
		c0.02-46.83,0.04-95.24-0.21-142.73c0-0.18-1.12-17.68-7.33-18.02c-15.96-0.86-32.2-0.79-47.91-0.73
		c-4.27,0.02-8.54,0.04-12.81,0.04h-2.69L944.97,64c-0.29,2.42-0.55,4.63-0.8,6.74l-0.08,0.7l-7.35,0.85h-2.87v245.62l10.01,1.35
		l1.5,9.95h113.56l1.16-10.35l10.17-1.06l0.46-4.49c0.21-2.02,0.4-3.87,0.58-5.67c2.27-0.31,4.33-0.6,6.45-0.9l2.34-0.33l1.05-9.95
		c2.63-0.28,5.11-0.54,7.71-0.82l2.4-0.26l1.04-8.72c2.59-0.25,5.08-0.5,7.75-0.77l2.45-0.25l1.15-10.65h108.23V61.37z
		 M1205.8,268.93h-107.61l-1.2,11.17c-2.57,0.26-5.04,0.5-7.71,0.75l-2.44,0.23l-1.03,8.77c-2.52,0.27-5.01,0.53-7.73,0.82
		l-2.44,0.26l-1.07,10.13c-2.03,0.28-4.09,0.57-6.45,0.89l-2.37,0.33l-0.24,2.38c-0.24,2.44-0.49,4.89-0.77,7.62l-10.12,1.06
		l-1.09,9.81H950.59l-1.4-9.29l-9.26-1.25V78.03l9.62-1.11l0.65-5.47c0.15-1.3,0.31-2.65,0.48-4.05c3.38-0.01,6.77-0.02,10.15-0.03
		c15.26-0.07,31.02-0.13,46.46,0.66c1.07,2.07,2.66,8.11,2.68,12.06c0.25,47.46,0.23,95.87,0.21,142.69l-0.01,40.91h27.02V66.95
		h59.97l1.6,9.37l9.44,1.43v131.14h28.94V67.44h68.66V268.93z"/>
	<path class="st1" d="M1410.33,72.49l-2.57-0.4c-2.54-0.39-4.79-0.73-7.03-1.07l-0.39-0.06l-1.76-9.99h-113.25l-1.2,10.46
		l-10.18,1.12l-1.19,10.13l-10.12,1.12l-1.06,10.1l-10.17,1.05l-0.26,2.45c-0.29,2.81-0.55,5.3-0.8,7.74l-8.74,1.14l-1.02,8.63
		l-10.36,1.09V329.4h70.26l1.21-10.57l11.11-1.01V132.73h15.29V329.3h70.96l1.19-9.78l10.35-2.11l-0.25-3.69V72.49z M1404.27,312.51
		l-9.52,1.94l-1.07,8.79h-59.52V126.67h-27.42v185.62l-10.51,0.95l-1.16,10.1h-58.78V121.46l9.75-1.03l1.04-8.75l8.83-1.15l0.24-2.4
		c0.25-2.5,0.5-4.95,0.78-7.66l10.17-1.05l1.06-10.14l10.06-1.11l1.19-10.13l10.19-1.11l1.14-9.9h102.76l1.63,9.27l4.71,0.71
		c1.45,0.22,2.9,0.44,4.44,0.67V312.51z"/>
	<path class="st1" d="M1696.34,318.87l10.37-0.98l0-29.94c0.01-53.55,0.02-108.91-0.36-163.19c-0.03-4.26-7.24-8.86-11.1-8.91
		c-26.34-0.33-53.06-0.3-78.9-0.28l-18.3,0.01c-0.44-2.94-0.76-5.06-1.07-7.19l-0.34-2.33l-2.35-0.24c-2.73-0.28-5.18-0.53-7.6-0.78
		l-1.06-10.17l-2.46-0.25c-2.8-0.28-5.3-0.54-7.81-0.8l-1.24-9.89l-9.9-1.26c-0.29-2.76-0.57-5.37-0.91-8.53l-0.29-2.71h-19.79
		l-1.29-10.47h-115.18V329.2h71.62V132.73h27.71v196.48h71.95V187.43h26.2v135.82l0.06,6.11l2.96-0.04h67.93L1696.34,318.87z
		 M1689.76,323.25h-59.44V181.37h-38.33v141.78h-59.82V126.67h-39.84v196.47h-59.49V67.04h103.75l1.29,10.47H1557l0.65,0.51
		c0.28,2.63,0.54,5.02,0.81,7.68l0.25,2.39l10,1.26l1.26,10l2.39,0.25c2.59,0.27,5.07,0.53,7.76,0.8l1.06,10.18l2.46,0.25
		c2.51,0.25,4.99,0.51,7.69,0.78c0.3,2.04,0.64,4.31,1.12,7.46l0.39,2.58l23.52-0.01c25.82-0.03,52.51-0.05,78.82,0.28
		c1.29,0.02,4.41,2.12,5.12,3.22c0.37,54.15,0.36,109.39,0.35,162.81l0,24.42l-9.8,0.92L1689.76,323.25z"/>
	<path class="st2" d="M836.27,164.07v-1.35l7.31-4.45v-25.55h-24.96v36.73h16.36C835.45,167.52,835.87,165.74,836.27,164.07z"/>
	<path class="st1" d="M812.56,175.51h24.81l2.39,0l0.56-2.32c0.61-2.51,1.15-4.76,1.65-6.85l7.68-4.66v-35.03h-37.09V175.51z
		 M818.62,132.72h24.96v25.55l-7.31,4.45v1.35c-0.4,1.67-0.83,3.45-1.29,5.38h-16.36V132.72z"/>
	<path class="st0" d="M1576.19,385.64l-1.17,9.8l-9.31,1.09v88.48h57.02l1.11-9.71l9.36-1.11v-99.24h-46.1l-1.01,9.66
		L1576.19,385.64z M1592.22,400.16h14.48v69.32h-14.48V400.16z"/>
	<path class="st0" d="M1534.15,385.33h-10.11l-0.29-2.62c-0.33-2.96-0.58-5.36-0.82-7.55h-46.23v24.56h41.28v28.11h-41.16v57.18
		h66.26v-15.43h-41.25v-26.61h41.83V396.2h-9.52V385.33z"/>
	<path class="st1" d="M1581.79,369.08l-1.06,10.17l-9.83,0.98l-1.18,9.91l-9.9,1.16v99.6h3.91h64.25l1.18-10.3l6.87-0.24l0.29-3.55
		h2.76V369.08h-52.58H1581.79z M1633.19,374.96v99.24l-9.36,1.11l-1.11,9.71h-57.02v-88.48l9.31-1.09l1.17-9.8l9.91-1.01l1.01-9.66
		H1633.19z"/>
	<path class="st1" d="M1540.04,379.45h-10.72c-0.23-2.13-0.43-3.97-0.61-5.7l-0.48-4.47h-57.4v0.01v36.33h41.28v16.34h-4.61h-36.55
		v1.93v67.03h74.77h3.26v-27.2h-41.25v-11.93v-2.91l38.59-0.01l3.24,0l0.01-58.54h-9.52V379.45z M1543.67,396.2v46.78h-41.83v26.61
		h41.25v15.43h-66.26v-57.18h41.16v-28.11h-41.28v-24.56h46.23c0.24,2.19,0.49,4.59,0.82,7.55l0.29,2.62h10.11v10.87H1543.67z"/>
	<path class="st0" d="M1769.68,390.59h41.25v-15.43h-66.26v57.18h41.15v28.11h-41.28v24.56h46.23c0.24-2.19,0.49-4.59,0.82-7.55
		l0.29-2.62h10.11v-10.87h9.52V417.2h-41.83V390.59z"/>
	<path class="st1" d="M1775.56,411.31v-14.84h41.25v-27.2h-78.04v31.97v36.99h6.25h34.9v16.34h-41.28v12.31v24.03h6.12h51.28
		l0.48-4.47c0.19-1.73,0.38-3.57,0.62-5.7h10.72v-10.87h9.52l-0.01-58.54L1775.56,411.31z M1811.51,463.98h-9.52v10.87h-10.11
		l-0.29,2.62c-0.33,2.96-0.58,5.36-0.82,7.55h-46.23v-24.56h41.28v-28.11h-41.15v-57.18h66.26v15.43h-41.25v26.61h41.83V463.98z"/>
	<path class="st1" d="M1606.7,400.16h-14.48v69.32h14.48V400.16z M1600.82,463.59h-2.71v-57.55h2.71V463.59z"/>
	<path class="st0" d="M1713.17,385.33h-10.11l-0.29-2.62c-0.33-2.96-0.58-5.36-0.82-7.55h-46.23v24.56H1697v28.11h-41.16v57.18
		h66.26v-15.43h-41.25v-26.61h41.83V396.2h-9.52V385.33z"/>
	<path class="st1" d="M1719.06,390.31v-10.87h-10.72c-0.23-2.13-0.43-3.97-0.62-5.7l-0.48-4.47h-54.25h-3.15v36.34h3.15h38.12v1
		v15.34h-41.16v68.95h3.01h75.03v-24.03v-3.17H1691h-4.26v-14.84l41.83-0.01l0.01-57.6l0-0.93h-2.8H1719.06z M1722.69,442.98h-41.83
		v26.61h41.25v15.43h-66.26v-57.18H1697v-28.11h-41.28v-24.56h46.23c0.24,2.19,0.49,4.59,0.82,7.55l0.29,2.62h10.11v10.87h9.52
		V442.98z"/>
	<path class="st0" d="M1232.03,400.1h26.05v31.66h25.94v-56.67h-57.36v21.11h-10.93v9.53h-10.92v79.28h57.75l1.02-9.72l2.36-0.26
		c2.75-0.3,5.32-0.57,7.82-0.83c0.33-2.1,0.62-4.01,0.92-5.93l0.5-3.21l9.01-1.45v-13.72h-26.28v19.2h-25.88V400.1z"/>
	<polygon class="st0" points="1039.38,385.29 1039.38,385.29 1039.37,385.16 1029.38,385.16 1027.39,375.29 970.98,375.29 
		970.98,484.99 996.96,484.99 996.96,400.26 1014.28,400.26 1014.28,485.01 1050.08,485.01 1050.08,422.02 1067.4,422.02 
		1067.4,484.84 1092.74,484.84 1092.74,395.81 1039.38,395.81 	"/>
	<path class="st0" d="M891.05,393.15c-0.3-2.76-0.56-5.19-0.82-7.58c-2.59-0.28-4.99-0.53-7.49-0.81l-2.35-0.26l-1.03-9.45h-46.1
		v109.94h24.61v-84.75h17.3v84.55h25.35v-62.81h27.75v62.86h25.89v-89.07h-62.83L891.05,393.15z"/>
	<path class="st0" d="M1178.33,396.2h-10.91v-21.8h-57.4v110.57h67.88c0.3-2.53,0.58-4.88,0.88-7.37l0.28-2.29l8.81-1.09v-68.5
		h-9.55V396.2z M1162.07,469.32h-15.99v-69.26h15.99V469.32z"/>
	<path class="st1" d="M1045.27,385.29l0.02-5.89l-11.09-0.13l-1.99-9.86h-67.11v121.47h37.76v-84.73h5.54v84.76h47.58v-63h5.54
		v62.83h37.11V389.92h-53.35V385.29z M1092.74,395.81v89.04h-25.34v-62.83h-17.32v63h-35.81v-84.76h-17.31v84.73h-25.98v-109.7h56.4
		l1.99,9.86h10l0.01,0.13h0v10.52H1092.74z"/>
	<path class="st1" d="M1184.22,396.04h0.06l0.09-5.89l-5.89,0.16h-5.16v-16.06h0.09l0.07-5.89l-5.89,0.14h-63.45v122.35h79l0.31-2.6
		c0.33-2.75,0.62-5.19,0.91-7.67l9.41-1.16v-61.55v-12.32v-5.71l-9.55-0.01V396.04z M1187.88,405.72v68.5l-8.81,1.09l-0.28,2.29
		c-0.3,2.49-0.58,4.83-0.88,7.37h-67.88V374.4h57.4v21.8h10.91v9.52H1187.88z"/>
	<path class="st1" d="M1252.03,463.2h-14.1v-57.22h14.27v31.66h37.72V369.2h-69.14v21.11h-5.21v-0.07l-5.89-0.08l0.1,5.89h0.07v3.79
		h-5.18v0l-5.89,0l0.06,5.71h0.08v85.35h68.94l1.08-10.27c1.88-0.2,3.69-0.39,5.47-0.58l4.47-0.47l0.35-2.23
		c0.42-2.63,0.77-4.91,1.12-7.16l7.01-1.12h2.72V444h-38.06V463.2z M1257.91,449.89h26.28v13.72l-9.01,1.45l-0.5,3.21
		c-0.3,1.93-0.59,3.84-0.92,5.93c-2.5,0.26-5.07,0.53-7.82,0.83l-2.36,0.26l-1.02,9.72h-57.75v-79.28h10.92v-9.53h10.93v-21.11
		h57.36v56.67h-25.94V400.1h-26.05v68.99h25.88V449.89z"/>
	<path class="st1" d="M895.84,382.58l-0.25-2.37l-3.71-0.39c-2.15-0.23-4.15-0.44-6.15-0.66l-1.09-10h-57.27v121.72h36.39v-84.75
		h5.53v84.55h37.13v-62.81h15.97v62.86h37.67V389.88h-63.43C896.34,387.32,896.1,384.99,895.84,382.58z M954.17,484.84h-25.89
		v-62.86h-27.75v62.81h-25.35v-84.55h-17.3v84.75h-24.61V375.05h46.1l1.03,9.45l2.35,0.26c2.5,0.27,4.9,0.53,7.49,0.81
		c0.25,2.4,0.52,4.82,0.82,7.58l0.29,2.62h62.83V484.84z"/>
	<path class="st1" d="M1146.07,469.32h15.99v-69.26h-15.99V469.32z M1151.96,405.95h4.22v57.48h-4.22V405.95z"/>
</g>
</svg>
